#!OML:ASF I:\Actors\actors\Patient Classification 2\Patient 1\Session 1\actor1.ASF
:FULLY-SPECIFIED
:DEGREES
426
root -1.43642 17.8956 6.17523 -6.46441 31.794 -6.93555
lowerback 11.8989 9.01042 13.9734
upperback -0.0283649 13.8184 -1.38645
thorax -3.00211 6.66725 -10.6928
lowerneck -10.5727 8.29359 12.9005
upperneck 7.65418 9.34051 -1.10994
head 4.66716 4.92704 -1.65356
rclavicle 5.98342e-014 1.78906e-014
rhumerus 29.9546 56.8234 -53.188
rradius 97.0361
rwrist -3.63979
rhand -0.553064 -14.4962
rfingers 7.12502
rthumb 25.0605 -42.872
lclavicle 5.98342e-014 1.78906e-014
lhumerus -45.3623 -22.0269 90.501
lradius 78.9938
lwrist 15.1476
lhand -3.89963 -20.9626
lfingers 7.12502
lthumb 21.8503 7.8237
rfemur 21.571 -25.3005 20.9688
rtibia -4.05233
rfoot -22.7873 -16.0797
rtoes 3.12527
lfemur 21.2568 -22.4495 -10.1053
ltibia -31.6044
lfoot 12.3815 4.38377
ltoes -17.4551
427
root -1.44667 17.9052 6.14864 -6.17253 30.5543 -6.97754
lowerback 11.8223 8.89035 13.2562
upperback 0.0314069 13.5619 -1.01823
thorax -3.21811 6.53003 -9.91852
lowerneck -10.8078 7.07437 11.2571
upperneck 7.71989 7.82616 -0.156359
head 4.52129 4.19243 -1.24579
rclavicle 7.78242e-014 1.33186e-014
rhumerus 27.5045 55.3824 -54.3858
rradius 97.24
rwrist -4.12437
rhand -1.52791 -15.1987
rfingers 7.12502
rthumb 24.1261 -43.7016
lclavicle 7.78242e-014 1.33186e-014
lhumerus -46.3029 -20.7545 90.4915
lradius 78.8676
lwrist 14.7373
lhand -3.15971 -21.0963
lfingers 7.12502
lthumb 22.5607 7.60554
rfemur 20.5789 -24.1931 21.4826
rtibia -3.34689
rfoot -22.9229 -15.9588
rtoes 2.68706
lfemur 21.0799 -21.8885 -9.8656
ltibia -31.3467
lfoot 12 4.85394
ltoes -17.552
428
root -1.45614 17.9149 6.12391 -5.86085 29.3821 -7.07618
lowerback 11.6746 8.80162 12.4679
upperback 0.0506758 13.3371 -0.577163
thorax -3.45566 6.40833 -9.02529
lowerneck -10.8911 5.66824 9.67498
upperneck 7.62492 6.10934 0.488637
head 4.3416 3.3359 -0.950997
rclavicle 7.3923e-015 -2.38542e-014
rhumerus 24.9196 53.9831 -55.4427
rradius 97.5698
rwrist -4.42632
rhand -2.15035 -15.9394
rfingers 7.12502
rthumb 23.5292 -44.5203
lclavicle 7.3923e-015 -2.38542e-014
lhumerus -47.1909 -19.5931 90.6506
lradius 78.7202
lwrist 14.2753
lhand -2.6454 -21.2398
lfingers 7.12502
lthumb 23.0542 7.40114
rfemur 19.4151 -23.1456 22.0321
rtibia -2.34479
rfoot -23.1888 -15.7277
rtoes 2.12633
lfemur 20.8364 -21.339 -9.56127
ltibia -31.0846
lfoot 11.6484 5.2768
ltoes -17.8674
429
root -1.46417 17.9236 6.1022 -5.54915 28.3569 -7.15062
lowerback 11.5027 8.64569 11.7832
upperback 0.0599629 13.0349 -0.210595
thorax -3.65681 6.25281 -8.25674
lowerneck -10.7739 4.21515 8.21416
upperneck 7.38784 4.36014 0.890578
head 4.12919 2.44717 -0.741799
rclavicle -1.49101e-013 1.15295e-014
rhumerus 22.4049 52.6484 -56.4961
rradius 97.8449
rwrist -4.4541
rhand -2.57605 -16.6367
rfingers 7.12502
rthumb 23.1208 -45.2693
lclavicle -1.49101e-013 1.15295e-014
lhumerus -47.9411 -18.5485 90.7226
lradius 78.5045
lwrist 13.8221
lhand -2.58472 -21.419
lfingers 7.12502
lthumb 23.1125 7.21473
rfemur 17.6186 -22.2361 22.5359
rtibia 1.90833e-014
rfoot -24.1062 -14.9985
rtoes 1.96211
lfemur 20.578 -20.8518 -9.29882
ltibia -30.8259
lfoot 11.336 5.65399
ltoes -17.9561
430
root -1.47138 17.9342 6.08283 -5.2082 27.4965 -7.14773
lowerback 11.3185 8.40213 11.1588
upperback 0.0800075 12.6198 0.048541
thorax -3.81302 6.04707 -7.61907
lowerneck -10.5905 2.75482 6.62809
upperneck 6.65416 2.60433 1.57451
head 4.19327 1.55836 -0.471835
rclavicle -1.39466e-013 -1.82385e-014
rhumerus 20.1867 51.3402 -57.5742
rradius 97.9076
rwrist -4.23426
rhand -2.92424 -17.2016
rfingers 7.12502
rthumb 22.7867 -45.8758
lclavicle -1.39466e-013 -1.82385e-014
lhumerus -48.4771 -17.6195 90.5757
lradius 78.2001
lwrist 13.3075
lhand -2.53149 -22.3922
lfingers 7.12502
lthumb 23.1635 6.23505
rfemur 17.1008 -21.4394 22.8242
rtibia -2.06736e-014
rfoot -24.1005 -14.997
rtoes 1.78422
lfemur 20.2923 -20.458 -9.13668
ltibia -30.5805
lfoot 11.0671 5.99243
ltoes -18.118
431
root -1.47721 17.9467 6.06405 -4.81728 26.7207 -7.13383
lowerback 11.1116 8.12129 10.6453
upperback 0.0775926 12.1644 0.182902
thorax -3.92533 5.82323 -7.15849
lowerneck -10.3943 1.32117 4.86883
upperneck 6.22763 0.871105 2.68696
head 3.92168 0.698599 0.089711
rclavicle -4.38972e-014 -1.31198e-014
rhumerus 18.2029 50.0093 -58.7175
rradius 97.7755
rwrist -4.05647
rhand -3.23088 -17.6883
rfingers 7.12502
rthumb 22.4924 -46.3984
lclavicle -4.38972e-014 -1.31198e-014
lhumerus -48.796 -16.7769 90.1223
lradius 77.667
lwrist 12.5962
lhand -2.28678 -24.3279
lfingers 7.12502
lthumb 23.3983 4.26965
rfemur 16.5262 -20.7206 23.1021
rtibia -9.54166e-015
rfoot -23.987 -15.0857
rtoes 1.31505
lfemur 19.9328 -20.1143 -8.98607
ltibia -30.354
lfoot 10.846 6.36279
ltoes -18.1505
432
root -1.48188 17.9586 6.04592 -4.45185 26.0095 -7.1774
lowerback 10.9381 7.83129 10.3082
upperback 0.0360882 11.7238 0.25086
thorax -4.03666 5.60263 -6.86421
lowerneck -10.0967 0.0853301 3.21385
upperneck 5.91328 -0.613042 3.76314
head 3.73941 -0.0357781 0.642204
rclavicle -2.62209e-014 -4.91992e-015
rhumerus 16.2862 48.7399 -59.8199
rradius 97.5916
rwrist -3.9613
rhand -3.31365 -18.2683
rfingers 7.12502
rthumb 22.4129 -46.9879
lclavicle -2.62209e-014 -4.91992e-015
lhumerus -49.2083 -16.2677 89.9728
lradius 77.7321
lwrist 12.9419
lhand -2.76984 -22.7263
lfingers 7.12502
lthumb 22.9348 5.92956
rfemur 15.9415 -20.0676 23.4178
rtibia 2.38542e-014
rfoot -23.8334 -15.2329
rtoes 0.581178
lfemur 19.5568 -19.7799 -8.78241
ltibia -30.1549
lfoot 10.6709 6.72948
ltoes -18.0707
433
root -1.48726 17.9709 6.02903 -4.11779 25.3557 -7.24019
lowerback 10.8306 7.55287 10.0765
upperback -0.0360835 11.3217 0.309153
thorax -4.18272 5.39589 -6.64869
lowerneck -9.79575 -0.989476 2.38851
upperneck 5.58051 -1.9199 3.79638
head 3.57621 -0.713604 0.715794
rclavicle 6.15487e-014 1.36167e-014
rhumerus 14.3269 47.4937 -60.9947
rradius 97.3371
rwrist -3.67689
rhand -3.16534 -18.5067
rfingers 7.12502
rthumb 22.5553 -47.2092
lclavicle 6.15487e-014 1.36167e-014
lhumerus -49.5074 -15.8663 89.765
lradius 77.5398
lwrist 12.9746
lhand -3.08897 -22.0619
lfingers 7.12502
lthumb 22.6286 6.6316
rfemur 15.4072 -19.4676 23.7184
rtibia 2.54444e-014
rfoot -23.7579 -15.3155
rtoes 0.0710651
lfemur 19.2057 -19.4192 -8.55677
ltibia -29.9847
lfoot 10.5033 7.04811
ltoes -17.8151
434
root -1.49262 17.9823 6.01317 -3.78541 24.7632 -7.26955
lowerback 10.7231 7.27171 9.85116
upperback -0.085267 10.9152 0.361291
thorax -4.29835 5.19036 -6.4377
lowerneck -9.58843 -2.31903 0.987975
upperneck 4.82231 -3.54178 4.63055
head 3.33669 -1.53044 1.14143
rclavicle -6.01603e-014 -5.96354e-016
rhumerus 12.5527 46.3757 -62.0142
rradius 97.1044
rwrist -3.34085
rhand -3.20796 -18.3194
rfingers 7.12502
rthumb 22.5144 -47.0268
lclavicle -6.01603e-014 -5.96354e-016
lhumerus -49.6117 -15.6008 89.4834
lradius 77.2915
lwrist 12.87
lhand -3.0791 -22.0387
lfingers 7.12502
lthumb 22.638 6.65363
rfemur 14.9252 -18.9188 23.9533
rtibia -4.77083e-015
rfoot -23.71 -15.3065
rtoes -0.0291261
lfemur 18.8763 -19.0939 -8.37284
ltibia -29.8365
lfoot 10.3493 7.3496
ltoes -17.5667
435
root -1.49615 17.9907 5.99769 -3.49232 24.2339 -7.26994
lowerback 10.6117 7.00152 9.63674
upperback -0.0914244 10.5214 0.412903
thorax -4.35771 4.99664 -6.2269
lowerneck -9.16788 -2.94204 0.824286
upperneck 4.37966 -4.29635 4.17944
head 3.1077 -1.94311 0.981804
rclavicle -9.29008e-015 -9.0944e-015
rhumerus 11.284 45.5598 -62.2884
rradius 97.1059
rwrist -3.36187
rhand -3.20478 -18.4081
rfingers 7.12502
rthumb 22.5174 -47.1151
lclavicle -9.29008e-015 -9.0944e-015
lhumerus -49.5584 -15.4147 89.2272
lradius 77.0232
lwrist 12.7559
lhand -3.07826 -22.0951
lfingers 7.12502
lthumb 22.6389 6.59721
rfemur 14.5197 -18.4278 24.1178
rtibia 3.18055e-015
rfoot -23.6158 -15.2807
rtoes 0.0144081
lfemur 18.607 -18.85 -8.26219
ltibia -29.7087
lfoot 10.2294 7.66229
ltoes -17.5326
436
root -1.49864 17.9969 5.9841 -3.2627 23.688 -7.30178
lowerback 10.5109 6.81149 9.45455
upperback -0.077556 10.2401 0.501567
thorax -4.38117 4.86119 -6.00183
lowerneck -8.93244 -3.92603 -0.710127
upperneck 3.84975 -5.46802 5.1132
head 2.99377 -2.52896 1.49658
rclavicle -3.79213e-014 -7.95139e-015
rhumerus 10.31 44.8738 -62.0092
rradius 97.2525
rwrist -3.57907
rhand -2.99573 -18.5513
rfingers 7.12502
rthumb 22.7181 -47.2339
lclavicle -3.79213e-014 -7.95139e-015
lhumerus -49.4375 -15.4143 89.12
lradius 76.7586
lwrist 12.6646
lhand -3.32877 -22.2286
lfingers 7.12502
lthumb 22.3984 6.49286
rfemur 14.1779 -17.9248 24.2911
rtibia 9.54166e-015
rfoot -23.5124 -15.2353
rtoes 0.265438
lfemur 18.4145 -18.5082 -8.14665
ltibia -29.5968
lfoot 10.1438 7.86803
ltoes -17.686
437
root -1.49914 18.0025 5.97399 -3.11159 23.1026 -7.40762
lowerback 10.425 6.68249 9.35043
upperback -0.0513736 10.0519 0.621502
thorax -4.37533 4.77252 -5.79348
lowerneck -8.70125 -4.78158 -1.32699
upperneck 3.47996 -6.53482 5.2497
head 2.89049 -3.07415 1.59434
rclavicle -5.01512e-014 -1.28962e-014
rhumerus 9.38345 44.2685 -61.657
rradius 97.425
rwrist -3.8372
rhand -3.37915 -18.8801
rfingers 7.12502
rthumb 22.35 -47.6073
lclavicle -5.01512e-014 -1.28962e-014
lhumerus -49.2479 -15.5249 89.0649
lradius 76.4876
lwrist 12.5503
lhand -3.48667 -22.4188
lfingers 7.12502
lthumb 22.2468 6.32076
rfemur 13.8979 -17.3898 24.5162
rtibia 4.29375e-014
rfoot -23.4375 -15.1911
rtoes 0.449056
lfemur 18.3059 -18.0652 -7.97608
ltibia -29.491
lfoot 10.0598 7.98864
ltoes -17.9115
